<?xml version="1.0" encoding="utf-8"?>
<!-- Generator: Adobe Illustrator 15.0.0, SVG Export Plug-In . SVG Version: 6.00 Build 0)  -->
<!DOCTYPE svg PUBLIC "-//W3C//DTD SVG 1.1//EN" "http://www.w3.org/Graphics/SVG/1.1/DTD/svg11.dtd">
<svg version="1.1" id="Layer_1" xmlns="http://www.w3.org/2000/svg" xmlns:xlink="http://www.w3.org/1999/xlink" x="0px" y="0px"
	 width="70px" height="70px" viewBox="0 0 70 70" enable-background="new 0 0 70 70" xml:space="preserve">
<rect fill="#EF3F3F" width="70" height="70"/>
<path fill-rule="evenodd" clip-rule="evenodd" fill="none" d="M350.41,1517.975c83.119,0,150.5,67.381,150.5,150.5
	c0,83.119-67.381,150.5-150.5,150.5c-83.119,0-150.5-67.381-150.5-150.5C199.91,1585.355,267.291,1517.975,350.41,1517.975z"/>
<path fill="#FFFFFF" d="M28.583,27.617c-0.109,0.109-0.342,0.163-0.698,0.163h-1.248c-0.356,0-0.594-0.054-0.713-0.163
	c-0.119-0.109-0.178-0.342-0.178-0.698v-2.317h-2.704v2.733c0,1.743,0.921,2.614,2.763,2.614h2.882c1.862,0,2.793-0.871,2.793-2.614
	v-5.347c0-1.742-0.911-2.614-2.733-2.614h-2.169c-0.356,0-0.594-0.054-0.713-0.164c-0.119-0.108-0.178-0.341-0.178-0.698v-4.129
	c0-0.356,0.06-0.589,0.178-0.698c0.119-0.108,0.356-0.163,0.713-0.163h1.248c0.357,0,0.594,0.055,0.713,0.163
	c0.119,0.109,0.178,0.342,0.178,0.698v2.317h2.703v-2.733c0-1.742-0.921-2.614-2.763-2.614h-2.911c-1.842,0-2.763,0.872-2.763,2.614
	v4.902c0,1.763,0.901,2.644,2.703,2.644h2.198c0.356,0,0.589,0.055,0.698,0.164c0.108,0.109,0.163,0.342,0.163,0.698v4.545
	C28.747,27.276,28.692,27.509,28.583,27.617z"/>
<path fill="#FFFFFF" d="M42.591,13.67l1.693,9.803h-3.238L42.591,13.67z M48.087,29.949l-3.535-18.597h-3.892l-3.297,18.597h2.674
	l0.683-4.307h3.921l0.743,4.307H48.087z"/>
<path fill="#FFFFFF" d="M31.658,36.247c0-1.742-0.921-2.614-2.763-2.614h-3.179c-1.842,0-2.763,0.872-2.763,2.614v13.369
	c0,1.763,0.921,2.644,2.763,2.644h3.179c1.842,0,2.763-0.881,2.763-2.644v-6.952h-4.189v2.079h1.486v4.545
	c0,0.356-0.059,0.589-0.178,0.698c-0.119,0.11-0.356,0.164-0.713,0.164h-1.515c-0.356,0-0.594-0.054-0.713-0.164
	c-0.119-0.109-0.178-0.342-0.178-0.698V36.604c0-0.356,0.059-0.589,0.178-0.698c0.119-0.109,0.357-0.164,0.713-0.164h1.515
	c0.356,0,0.594,0.055,0.713,0.164c0.119,0.109,0.178,0.341,0.178,0.698v2.466h2.703V36.247z"/>
<path fill="#FFFFFF" d="M41.551,43.704h4.278v-2.168h-4.278v-5.734h5.169v-2.169h-7.873V52.23h8.081v-2.169h-5.377V43.704z"/>
<path fill="#FFFFFF" d="M23.117,55.22h23.767v2.377H23.117V55.22z"/>
</svg>
